# xmcd
#
# Track frame offsets: 
#        150
#        5747
#        26517
#        49480
#        76147
#        104640
#        124515
#        141297
#        167042
#
# Disc length: 2504 seconds
#
# Revision: 2
# Processed by: cddbd v1.5.2PL0 Copyright (c) Steve Scherf et al.
# Submitted via: ExactAudioCopy v0.95b4
#
DISCID=7509c609
DTITLE=Mysticum - In The Streams Of Inferno
DYEAR=1996
DGENRE=Black Metal
TTITLE0=Industries of Inferno
TTITLE1=The Rest
TTITLE2=Let the Kingdom Come
TTITLE3=Wintermass
TTITLE4=Where the Raven Flies
TTITLE5=Crypt of Fear
TTITLE6=In Your Grave
TTITLE7=In the Last of the Ruins
TTITLE8=Eriaminell
EXTD=
EXTT0=
EXTT1=
EXTT2=
EXTT3=
EXTT4=
EXTT5=
EXTT6=
EXTT7=
EXTT8=Bonus Track
PLAYORDER=
